{
    "asset" : {
        "generator" : "Khronos glTF Blender I/O v1.1.46",
        "version" : "2.0"
    },
    "scene" : 0,
    "scenes" : [
        {
            "name" : "Scene",
            "nodes" : [
                0,
                1,
                2,
                3,
                4,
                5
            ]
        }
    ],
    "nodes" : [
        {
            "name" : "Light",
            "rotation" : [
                0.16907575726509094,
                0.7558803558349609,
                -0.27217137813568115,
                0.570947527885437
            ],
            "translation" : [
                5.066978931427002,
                37.60410690307617,
                8.588865280151367
            ]
        },
        {
            "name" : "Camera",
            "rotation" : [
                0.7161750793457031,
                0.00789643544703722,
                -0.034514170140028,
                0.697022020816803
            ],
            "translation" : [
                3.837942600250244,
                8.539270401000977,
                58.452674865722656
            ]
        },
        {
            "mesh" : 0,
            "name" : "FinalBaseMesh",
            "rotation" : [
                0.7071068286895752,
                0,
                0,
                0.7071067094802856
            ]
        },
        {
            "name" : "Light.001",
            "rotation" : [
                0.16907575726509094,
                0.7558803558349609,
                -0.27217137813568115,
                0.570947527885437
            ],
            "translation" : [
                -10.187418937683105,
                37.47718811035156,
                8.540395736694336
            ]
        },
        {
            "name" : "Light.002",
            "rotation" : [
                0.16907575726509094,
                0.7558803558349609,
                -0.27217137813568115,
                0.570947527885437
            ],
            "translation" : [
                -10.187418937683105,
                38.991031646728516,
                -14.316503524780273
            ]
        },
        {
            "name" : "Light.003",
            "rotation" : [
                0.16907575726509094,
                0.7558803558349609,
                -0.27217137813568115,
                0.570947527885437
            ],
            "translation" : [
                5.066978931427002,
                39.6118278503418,
                -15.431282043457031
            ]
        }
    ],
    "materials" : [
        {
            "doubleSided" : true,
            "emissiveFactor" : [
                0,
                0,
                0
            ],
            "name" : "default",
            "pbrMetallicRoughness" : {
                "baseColorFactor" : [
                    0.800000011920929,
                    0.800000011920929,
                    0.800000011920929,
                    1
                ],
                "metallicFactor" : 0.46464645862579346,
                "roughnessFactor" : 0.36868685483932495
            }
        }
    ],
    "meshes" : [
        {
            "name" : "FinalBaseMesh",
            "primitives" : [
                {
                    "attributes" : {
                        "POSITION" : 0,
                        "NORMAL" : 1
                    },
                    "indices" : 2,
                    "material" : 0
                }
            ]
        }
    ],
    "accessors" : [
        {
            "bufferView" : 0,
            "componentType" : 5126,
            "count" : 24461,
            "max" : [
                5.84250020980835,
                1.9170000553131104,
                0.05660000070929527
            ],
            "min" : [
                -5.84250020980835,
                -1.8530999422073364,
                -20.684099197387695
            ],
            "type" : "VEC3"
        },
        {
            "bufferView" : 1,
            "componentType" : 5126,
            "count" : 24461,
            "type" : "VEC3"
        },
        {
            "bufferView" : 2,
            "componentType" : 5123,
            "count" : 146754,
            "type" : "SCALAR"
        }
    ],
    "bufferViews" : [
        {
            "buffer" : 0,
            "byteLength" : 293532,
            "byteOffset" : 0
        },
        {
            "buffer" : 0,
            "byteLength" : 293532,
            "byteOffset" : 293532
        },
        {
            "buffer" : 0,
            "byteLength" : 293508,
            "byteOffset" : 587064
        }
    ],
    "buffers" : [
        {
            "byteLength" : 880572,
            "uri" : "data:application/octet-stream;base64,"
        }
    ]
}
